<?xml version="1.0" encoding="UTF-8"?>
<svg width="24px" height="14px" viewBox="0 0 24 14" version="1.1" xmlns="http://www.w3.org/2000/svg" xmlns:xlink="http://www.w3.org/1999/xlink">
    <title>5938E387-E182-4B68-956E-BA29CFD3E10B</title>
    <g id="Exames" stroke="none" stroke-width="1" fill="none" fill-rule="evenodd">
        <g id="Mobile---Exames" transform="translate(-305.000000, -101.000000)" fill="#00AEEF">
            <g id="UI/Buttons/Filter/Default" transform="translate(212.000000, 88.000000)">
                <g id="Shape" transform="translate(93.000000, 13.000000)">
                    <path d="M7,8 C5.73321457,8.00525139 4.60625455,8.80564913 4.184,10 L0,10 L0,12 L4.184,12 C4.60141137,13.1981296 5.73124207,14.0009455 7,14.0009455 C8.26875793,14.0009455 9.39858863,13.1981296 9.816,12 L24,12 L24,10 L9.816,10 C9.39374545,8.80564913 8.26678543,8.00525139 7,8 L7,8 Z M7,12 C6.44771525,12 6,11.5522847 6,11 C6,10.4477153 6.44771525,10 7,10 C7.55228475,10 8,10.4477153 8,11 C8,11.5522847 7.55228475,12 7,12 Z"></path>
                    <path d="M17,-8.8817842e-16 C15.7332146,0.00525139351 14.6062546,0.805649135 14.184,2 L0,2 L0,4 L14.184,4 C14.6014114,5.19812955 15.7312421,6.00094547 17,6.00094547 C18.2687579,6.00094547 19.3985886,5.19812955 19.816,4 L24,4 L24,2 L19.816,2 C19.3937454,0.805649135 18.2667854,0.00525139351 17,-8.8817842e-16 Z M17,4 C16.4477153,4 16,3.55228475 16,3 C16,2.44771525 16.4477153,2 17,2 C17.5522847,2 18,2.44771525 18,3 C18,3.55228475 17.5522847,4 17,4 Z"></path>
                </g>
            </g>
        </g>
    </g>
</svg>