<?xml version="1.0" encoding="UTF-8"?>
<svg width="24px" height="24px" viewBox="0 0 24 24" version="1.1" xmlns="http://www.w3.org/2000/svg" xmlns:xlink="http://www.w3.org/1999/xlink">
    <title>8B71CAF8-B5C6-4450-BFC6-310320240CE7</title>
    <defs>
        <filter id="filter-1">
            <feColorMatrix in="SourceGraphic" type="matrix" values="0 0 0 0 0.058824 0 0 0 0 0.527832 0 0 0 0 0.784314 0 0 0 1.000000 0"></feColorMatrix>
        </filter>
    </defs>
    <g id="Welcome-Flow" stroke="none" stroke-width="1" fill="none" fill-rule="evenodd">
        <g id="02.-Mobile---Dashboard" transform="translate(-320.000000, -15.000000)">
            <g id="user-icon" transform="translate(320.000000, 15.000000)" filter="url(#filter-1)">
                <g>
                    <path d="M16.370256,8.424336 C16.370256,10.088208 15.440592,11.534688 14.072304,12.273024 C13.455696,12.605808 12.74976,12.794592 12,12.794592 C11.25024,12.794592 10.544304,12.605808 9.927696,12.273024 C8.559408,11.534688 7.629696,10.088208 7.629696,8.424336 C7.629696,6.010656 9.58632,4.054032 12,4.054032 C14.41368,4.054032 16.370256,6.010656 16.370256,8.424336" id="Fill-3" fill="#424242"></path>
                    <path d="M21.592992,16.051824 C21.16488,17.064432 20.585472,17.992512 19.866528,18.819888 C19.509552,16.303536 17.973792,14.16672 15.836304,12.986256 C15.527712,13.245312 15.190464,13.475424 14.827152,13.671504 C13.963584,14.137488 12.98592,14.383776 12,14.383776 C11.013744,14.383776 10.036416,14.137488 9.172848,13.671504 C8.809536,13.475424 8.472288,13.245312 8.163696,12.986256 C6.026208,14.16672 4.4904,16.303536 4.133472,18.819888 C3.414528,17.992512 2.83512,17.064432 2.407008,16.051824 C1.864464,14.769024 1.589184,13.405776 1.589184,12 C1.589184,10.594224 1.864464,9.230688 2.407008,7.947888 C2.93112,6.708 3.682176,5.594592 4.638528,4.63824 C5.594928,3.68184 6.708288,2.93112 7.947888,2.407008 C9.230688,1.864128 10.594176,1.589184 12,1.589184 C13.405776,1.589184 14.769024,1.864128 16.052112,2.407008 C17.291712,2.93112 18.405072,3.68184 19.361472,4.63824 C20.317824,5.594592 21.068592,6.708 21.592992,7.947888 C22.135584,9.230688 22.410816,10.594224 22.410816,12 C22.410816,13.405776 22.135584,14.769024 21.592992,16.051824 Z M23.056656,7.328736 C22.452144,5.899728 21.586992,4.616304 20.485344,3.514656 C19.383408,2.41272 18.100272,1.547568 16.671264,0.943344 C15.191088,0.317184 13.619712,0 12,0 C10.380288,0 8.808576,0.317184 7.328736,0.943344 C5.899728,1.547568 4.616592,2.41272 3.514656,3.514656 C2.41272,4.616304 1.547856,5.899728 0.943344,7.328736 C0.317184,8.808576 0,10.380288 0,12 C0,13.619376 0.317184,15.191088 0.943344,16.670976 C1.546272,18.09648 2.408256,19.376736 3.506064,20.476752 L3.510192,20.480592 C3.511824,20.482176 3.513072,20.48376 3.514656,20.485008 L3.514656,20.485344 L3.539136,20.509488 L3.539472,20.509824 C4.635696,21.6 5.910528,22.45656 7.328736,23.056656 C8.808576,23.68248 10.380288,24 12,24 C13.619712,24 15.191088,23.68248 16.670976,23.056656 C18.080592,22.4604 19.348128,21.6108 20.439888,20.530464 L20.485344,20.485008 C20.487552,20.483136 20.489472,20.48088 20.49168,20.478672 L20.502816,20.467536 L20.503152,20.467536 C21.596208,19.369392 22.455312,18.092352 23.056656,16.670976 C23.68248,15.191088 24,13.619376 24,12 C24,10.380288 23.68248,8.808576 23.056656,7.328736 L23.056656,7.328736 Z" id="Fill-4" fill="#424242"></path>
                </g>
            </g>
        </g>
    </g>
</svg>