<?xml version="1.0" encoding="UTF-8"?>
<svg width="60px" height="25px" viewBox="0 0 60 25" version="1.1" xmlns="http://www.w3.org/2000/svg" xmlns:xlink="http://www.w3.org/1999/xlink">
    <title>Logo / Secondary</title>
    <g id="UI-Kit" stroke="none" stroke-width="1" fill="none" fill-rule="evenodd">
        <g id="Desktop-|-Exames-@-filter" transform="translate(-28.000000, -16.000000)">
            <g id="Logo-/-Secondary" transform="translate(28.000000, 16.000000)">
                <g id="Path-3" transform="translate(0.000000, 7.066427)" fill="#0391C6">
                    <polygon id="Path" points="5.83492698 16.8601106 0.0282674839 0.0341971711 3.9110265 0.0341971711 7.68593009 11.5923149"></polygon>
                </g>
                <g id="Path-3" transform="translate(5.810526, 7.066427)" fill="#00AEEF">
                    <polygon id="Path" points="0.00484886108 16.8601106 5.90905348 0.0341971711 9.91433458 0.0341971711 3.74305014 16.8601106"></polygon>
                </g>
                <polygon id="Path" fill="#FFFFFF" points="17.6842105 24 26.2963248 0 30.7368421 0 22.1247278 24"></polygon>
                <polygon id="Triangle" fill="#00AEEF" fill-rule="nonzero" transform="translate(16.947368, 16.136445) rotate(90.000000) translate(-16.947368, -16.136445) " points="16.9473684 14.7680242 19.123311 17.5048663 14.7714259 17.5048663"></polygon>
                <path d="M34.6811459,7.10951526 C38.6266045,7.10951526 41.4315789,8.75096179 41.4315789,13.2333734 L41.4315789,23.9974747 L37.0854097,23.9974747 L37.0854097,22.0087991 C36.1606929,23.3345828 34.7427937,24.3447038 32.2152343,24.3447038 C29.2869642,24.3447038 26.8210526,22.8926549 26.8210526,19.4203642 C26.8210526,15.5692781 30.2733289,14.1172293 35.2051521,14.1172293 L37.0237619,14.1172293 L37.0237619,13.4543374 C37.0237619,11.4972281 36.4381079,10.4239746 34.4037308,10.4239746 C32.6467688,10.4239746 31.8453475,11.3393967 31.6604042,12.7598793 L27.4375305,12.7598793 C27.7149456,8.84566062 30.7356873,7.10951526 34.6811459,7.10951526 Z M37.0237619,16.8319293 L35.2976238,16.8319293 C32.7084166,16.8319293 31.1980457,17.4001223 31.1980457,19.167834 C31.1980457,20.3673526 31.9069953,21.1565096 33.5406618,21.1565096 C35.5133911,21.1565096 37.0237619,20.0516898 37.0237619,18.2208456 L37.0237619,16.8319293 Z" id="Combined-Shape" fill="#FFFFFF"></path>
                <path d="M47.8035088,0 L47.8035088,10.0725817 C48.6989474,8.49380715 50.5824561,7.10448554 52.96,7.10448554 C56.9122807,7.10448554 60,10.1041572 60,15.5667172 L60,15.8193211 C60,21.2818811 56.9740351,24.3447038 52.96,24.3447038 C50.4589474,24.3447038 48.637193,23.0816841 47.8035088,21.3766076 L47.8035088,23.9973734 L43.3263158,23.9973734 L43.3263158,0 L47.8035088,0 Z M51.6014035,10.6093651 C49.2547368,10.6093651 47.6491228,12.2828661 47.6491228,15.5982927 L47.6491228,15.8508966 C47.6491228,19.1663232 49.1929825,20.7766733 51.6322807,20.7766733 C54.1024561,20.7766733 55.4610526,19.0715967 55.4610526,15.8508966 L55.4610526,15.5982927 C55.4610526,12.2512906 53.8554386,10.6093651 51.6014035,10.6093651 Z" id="Combined-Shape" fill="#FFFFFF"></path>
            </g>
        </g>
    </g>
</svg>