<?xml version="1.0" encoding="UTF-8"?>
<svg width="120px" height="92px" viewBox="0 0 120 92" version="1.1" xmlns="http://www.w3.org/2000/svg" xmlns:xlink="http://www.w3.org/1999/xlink">
    <g id="Welcome-Flow" stroke="none" stroke-width="1" fill="none" fill-rule="evenodd">
        <g id="02.-Mobile---Dashboard" transform="translate(-120.000000, -166.000000)">
            <g id="LiveExams" transform="translate(16.000000, 98.000000)">
                <g id="Card-LiveExams" transform="translate(0.000000, 44.000000)">
                    <g id="ilustra_ultrassom" transform="translate(104.000000, 24.000000)">
                        <path d="M111.448517,34.544943 L111.448517,74.101597 C111.448517,76.2848669 109.676806,78.0565779 107.498555,78.0565779 C105.314829,78.0565779 103.543574,76.2848669 103.543574,74.101597 L103.543574,52.1589354 C103.543574,51.5087452 103.017947,50.9831179 102.367757,50.9831179 C101.723042,50.9831179 101.197414,51.5087452 101.197414,52.1589354 L101.197414,87.9171103 C101.197414,89.7595437 99.69673,91.2547529 97.8547529,91.2547529 L54.0611407,91.2547529 C51.8454753,91.2547529 50.0463878,89.4561217 50.0463878,87.2404563 C50.0463878,85.0238783 51.8454753,83.2197719 54.0611407,83.2197719 L77.0390875,83.2197719 C77.9812928,83.2197719 78.7510266,82.4509506 78.7510266,81.5023574 C78.7510266,80.5596958 77.9812928,79.789962 77.0390875,79.789962 L36.6479087,79.789962 C34.8059316,79.789962 33.3102662,78.2892776 33.3102662,76.4473004 L33.3102662,74.4155133 L35.4775665,74.4155133 L35.4775665,76.4473004 C35.4775665,77.0920152 36.0031939,77.6231179 36.6479087,77.6231179 L77.0390875,77.6231179 C79.1790114,77.6231179 80.918327,79.3624335 80.918327,81.5023574 C80.918327,83.6427376 79.1790114,85.3870722 77.0390875,85.3870722 L54.0611407,85.3870722 C53.0427376,85.3870722 52.2136882,86.2156654 52.2136882,87.2404563 C52.2136882,88.2588593 53.0427376,89.0874525 54.0611407,89.0874525 L97.8547529,89.0874525 C98.4994677,89.0874525 99.0305703,88.5618251 99.0305703,87.9171103 L99.0305703,52.1589354 C99.0305703,50.3169582 100.525779,48.8158175 102.367757,48.8158175 C104.209734,48.8158175 105.710875,50.3169582 105.710875,52.1589354 L105.710875,74.101597 C105.710875,75.0876046 106.512548,75.8897338 107.498555,75.8897338 C108.479087,75.8897338 109.281217,75.0876046 109.281217,74.101597 L109.281217,34.544943 L111.448517,34.544943" id="Fill-24" fill="#00AEEF"></path>
                        <path d="M80.918327,81.5023574 C80.918327,81.6328517 80.9128517,81.7679087 80.8964259,81.8924715 L80.8909506,81.9522433 C80.8804563,82.0658555 80.8635741,82.1744487 80.836654,82.2825856 C80.8206844,82.3692776 80.8047148,82.4509506 80.7773384,82.531711 L80.7554373,82.6024335 C80.7394677,82.661749 80.7175665,82.7269962 80.6956654,82.7867681 L80.6796958,82.8301141 C80.6363498,82.9546768 80.5820532,83.0842586 80.5222814,83.2038023 C79.7694297,82.7648669 78.8865399,82.6512548 78.0629658,82.8730038 L78.0410646,82.8784791 C78.219924,82.7593916 78.3718631,82.5969582 78.4854753,82.4130798 C78.5721673,82.2775665 78.6374144,82.1361217 78.6803042,81.9846388 C78.69673,81.9303422 78.7076806,81.8815209 78.7181749,81.8272243 C78.7291255,81.7788593 78.7346008,81.7355133 78.740076,81.6812167 C78.7455513,81.6214449 78.7510266,81.5621293 78.7510266,81.5023574 C78.7510266,81.4156654 78.7455513,81.3239544 78.7291255,81.2422814 L78.7181749,81.1774905 C78.7131559,81.1231939 78.69673,81.0743726 78.6803042,81.0205323 C78.6643346,80.9712548 78.6479087,80.9174144 78.6260076,80.8685932 C78.610038,80.8197719 78.5881369,80.7709506 78.561673,80.7276046 C78.5397719,80.6792395 78.5178707,80.6354373 78.4904943,80.5975665 C78.3768821,80.4187072 78.2308745,80.261749 78.0629658,80.1371863 C78.0196198,80.1047909 77.9758175,80.0774144 77.9329278,80.0504943 C77.8895817,80.0231179 77.8407605,79.996654 77.7919392,79.9747529 C77.6076046,79.8825856 77.4018251,79.8228137 77.1796198,79.8068441 L77.1796198,77.6285932 L77.2553612,77.6340684 C77.3425095,77.6395437 77.42327,77.6445627 77.5104183,77.6559696 C77.5642586,77.6609886 77.6185551,77.6664639 77.6723954,77.6824335 C77.7540684,77.6938403 77.8407605,77.7098099 77.9169582,77.7262357 L77.9598479,77.73673 C78.0734601,77.7641065 78.1875285,77.7965019 78.2961217,77.8343726 C78.4097338,77.8722433 78.5288213,77.9210646 78.6374144,77.9698859 C78.7510266,78.0187072 78.8536882,78.0784791 78.9622814,78.1327757 L78.9892015,78.1542205 C79.0868441,78.2085171 79.1844867,78.268289 79.276654,78.3385551 C79.5581749,78.533384 79.8127757,78.7715589 80.0295057,79.0371103 C80.078327,79.0968821 80.1271483,79.1511787 80.165019,79.2164259 C80.2138403,79.2757414 80.25673,79.3405323 80.3005323,79.4057795 C80.3598479,79.4979468 80.4141445,79.5955894 80.4684411,79.6932319 C80.5277567,79.8013688 80.5770342,79.9095057 80.6253992,80.0285932 C80.6742205,80.1371863 80.7120913,80.2562738 80.749962,80.3758175 C80.8585551,80.7330798 80.918327,81.1122433 80.918327,81.5023574" id="Fill-25" fill="#1D5880"></path>
                        <polygon id="Fill-26" fill="#8DD0FF" points="40.8164259 72.1040304 53.8193156 72.1040304 53.8193156 56.5692776 40.8164259 56.5692776"></polygon>
                        <path d="M53.8193156,70.1137643 C49.7352091,68.0326996 44.9009886,68.0326996 40.8164259,70.1137643 C40.8164259,65.5989354 40.8164259,61.0836502 40.8164259,56.5692776 C45.1505703,56.5692776 49.4851711,56.5692776 53.8193156,56.5692776 C53.8193156,61.0836502 53.8193156,65.5989354 53.8193156,70.1137643" id="Fill-27" fill="#00AEEF"></path>
                        <path d="M94.6357414,5.41779468 L94.6357414,60.3508745 C94.6357414,63.341749 92.208365,65.7686692 89.2174905,65.7686692 L5.41779468,65.7686692 C2.42737643,65.7686692 1.94521205e-14,63.341749 1.94521205e-14,60.3508745 L1.94521205e-14,5.41779468 C1.94521205e-14,2.42737643 2.42737643,0 5.41779468,0 L89.2174905,0 C92.208365,0 94.6357414,2.42737643 94.6357414,5.41779468" id="Fill-28" fill="#00AEEF"></path>
                        <path d="M5.41825095,5.14768061 C5.41825095,4.24973384 6.1460076,3.52243346 7.0434981,3.52243346 L87.5913308,3.52243346 C88.488365,3.52243346 89.2161217,4.24973384 89.2161217,5.14768061 L89.2161217,56.8275285 C89.2161217,57.725019 88.488365,58.4527757 87.5913308,58.4527757 L7.0434981,58.4527757 C6.1460076,58.4527757 5.41825095,57.725019 5.41825095,56.8275285 L5.41825095,5.14768061 Z" id="Fill-29" fill="#8DD0FF"></path>
                        <path d="M94.6357414,11.7353612 L94.6357414,53.318327 C94.6357414,55.113308 93.1802281,56.5688213 91.3847909,56.5688213 L86.0701141,56.5688213 C84.2746768,56.5688213 82.8191635,55.113308 82.8191635,53.318327 L82.8191635,11.7353612 C82.8191635,9.93992395 84.2746768,8.48486692 86.0701141,8.48486692 L91.3847909,8.48486692 C93.1802281,8.48486692 94.6357414,9.93992395 94.6357414,11.7353612" id="Fill-30" fill="#00AEEF"></path>
                        <path d="M11.8165779,11.7353612 L11.8165779,53.318327 C11.8165779,55.113308 10.3610646,56.5688213 8.56608365,56.5688213 L3.25095057,56.5688213 C1.45551331,56.5688213 6.48404017e-15,55.113308 6.48404017e-15,53.318327 L6.48404017e-15,11.7353612 C6.48404017e-15,9.93992395 1.45551331,8.48486692 3.25095057,8.48486692 L8.56608365,8.48486692 C10.3610646,8.48486692 11.8165779,9.93992395 11.8165779,11.7353612" id="Fill-31" fill="#00AEEF"></path>
                        <path d="M70.1826616,16.4760456 L66.5625856,16.4760456 C65.6646388,16.4760456 64.9368821,15.748289 64.9368821,14.8507985 L64.9368821,11.2302662 C64.9368821,10.3323194 65.6646388,9.60501901 66.5625856,9.60501901 L70.1826616,9.60501901 C71.0806084,9.60501901 71.808365,10.3323194 71.808365,11.2302662 L71.808365,14.8507985 C71.808365,15.748289 71.0806084,16.4760456 70.1826616,16.4760456" id="Fill-32" fill="#00AEEF"></path>
                        <path d="M78.8514068,16.4760456 L75.2313308,16.4760456 C74.333384,16.4760456 73.6056274,15.748289 73.6056274,14.8507985 L73.6056274,11.2302662 C73.6056274,10.3323194 74.333384,9.60501901 75.2313308,9.60501901 L78.8514068,9.60501901 C79.7493536,9.60501901 80.4771103,10.3323194 80.4771103,11.2302662 L80.4771103,14.8507985 C80.4771103,15.748289 79.7493536,16.4760456 78.8514068,16.4760456" id="Fill-33" fill="#1D5880"></path>
                        <path d="M70.1826616,26.0185551 L66.5625856,26.0185551 C65.6646388,26.0185551 64.9368821,25.2907985 64.9368821,24.393308 L64.9368821,20.7727757 C64.9368821,19.8752852 65.6646388,19.1470722 66.5625856,19.1470722 L70.1826616,19.1470722 C71.0806084,19.1470722 71.808365,19.8752852 71.808365,20.7727757 L71.808365,24.393308 C71.808365,25.2907985 71.0806084,26.0185551 70.1826616,26.0185551" id="Fill-34" fill="#1D5880"></path>
                        <path d="M78.8514068,26.0185551 L75.2313308,26.0185551 C74.333384,26.0185551 73.6056274,25.2907985 73.6056274,24.393308 L73.6056274,20.7727757 C73.6056274,19.8752852 74.333384,19.1470722 75.2313308,19.1470722 L78.8514068,19.1470722 C79.7493536,19.1470722 80.4771103,19.8752852 80.4771103,20.7727757 L80.4771103,24.393308 C80.4771103,25.2907985 79.7493536,26.0185551 78.8514068,26.0185551" id="Fill-35" fill="#00AEEF"></path>
                        <path d="M64.4660076,48.9928517 C51.8053232,51.9490494 38.4565779,51.9490494 25.7958935,48.9928517 C24.7907224,48.7601521 24.1806844,47.73673 24.4676806,46.7434221 L33.1793156,16.228289 C33.4485171,15.3011407 34.3998479,14.7444867 35.3393156,14.9840304 C41.7294297,16.5992395 48.5324715,16.5992395 54.9225856,14.9840304 C55.8625095,14.7444867 56.8138403,15.3011407 57.0825856,16.228289 L65.7942205,46.7434221 C66.081673,47.73673 65.4711787,48.7601521 64.4660076,48.9928517" id="Fill-36" fill="#0F87C8"></path>
                        <path d="M47.0130798,51.1829658 C39.8865399,51.3444867 32.7362738,50.6144487 25.7958935,48.9928517 C24.7907224,48.7601521 24.1806844,47.73673 24.4676806,46.7434221 L33.1793156,16.228289 C33.4485171,15.3011407 34.3998479,14.7444867 35.3393156,14.9840304 C36.0574905,15.163346 36.7811407,15.3248669 37.5111787,15.4685932 C37.3081369,15.6720913 37.1520913,15.9294297 37.0685932,16.228289 L28.3569582,46.7434221 C28.0695057,47.73673 28.68,48.7601521 29.6851711,48.9928517 C35.3630418,50.3215209 41.1791635,51.0515589 47.0130798,51.1829658" id="Fill-37" fill="#1D5880"></path>
                        <path d="M60.6606844,28.751635 C60.3914829,28.853384 60.1163498,28.9551331 59.8471483,29.045019 C57.2623574,29.9420532 54.581749,30.6301141 51.883346,31.085019 C51.8171863,31.0968821 51.7514829,31.1028137 51.6857795,31.1028137 C51.1113308,31.1028137 50.6025856,30.6903422 50.5067681,30.1035741 C50.3931559,29.4515589 50.8361977,28.8351331 51.4886692,28.7274525 C54.0492776,28.29673 56.5980228,27.6387833 59.0573384,26.78327 C59.3443346,26.6815209 59.6313308,26.5797719 59.9187833,26.4720913 L60.0027376,26.4479087 L60.6606844,28.751635" id="Fill-38" fill="#1D5880"></path>
                        <path d="M46.0480608,39.9723194 C45.104943,39.9723194 44.1631939,39.9453992 43.2278327,39.8911027 C42.5680608,39.8532319 42.0638783,39.2874525 42.101749,38.6276806 C42.1396198,37.9674525 42.7076806,37.4614449 43.3656274,37.5020532 C45.1501141,37.6047148 46.9624335,37.6042586 48.7528517,37.5006844 C49.4322433,37.46327 49.9788593,37.9665399 50.0171863,38.6258555 C50.0555133,39.2860837 49.5517871,39.8518631 48.8920152,39.8901901 C47.9475285,39.944943 46.9975665,39.9723194 46.0480608,39.9723194" id="Fill-39" fill="#1D5880"></path>
                        <path d="M63,36.9485932 L62.1508745,37.2479087 C59.1828137,38.2831939 56.1075285,39.0310266 53.0021293,39.4736122 C52.948289,39.4795437 52.8885171,39.4859316 52.8346768,39.4859316 C52.248365,39.4859316 51.7336882,39.0547529 51.6497338,38.4565779 C51.5539163,37.8041065 52.0088213,37.2 52.6672243,37.1041825 C55.6165779,36.6853232 58.5426616,35.9735361 61.3606084,34.9861597 L62.2704183,34.6631179 L62.3420532,34.6453232 L63,36.9485932" id="Fill-40" fill="#1D5880"></path>
                        <path d="M60.7738403,62.3593916 L57.931711,62.3593916 C57.2956654,62.3593916 56.780076,61.8438023 56.780076,61.2082129 C56.780076,60.5721673 57.2956654,60.0565779 57.931711,60.0565779 L60.7738403,60.0565779 C61.4098859,60.0565779 61.9254753,60.5721673 61.9254753,61.2082129 C61.9254753,61.8438023 61.4098859,62.3593916 60.7738403,62.3593916" id="Fill-41" fill="#1D5880"></path>
                        <path d="M66.993308,62.3593916 L64.1511787,62.3593916 C63.5151331,62.3593916 62.9995437,61.8438023 62.9995437,61.2082129 C62.9995437,60.5721673 63.5151331,60.0565779 64.1511787,60.0565779 L66.993308,60.0565779 C67.6293536,60.0565779 68.144943,60.5721673 68.144943,61.2082129 C68.144943,61.8438023 67.6293536,62.3593916 66.993308,62.3593916" id="Fill-42" fill="#1D5880"></path>
                        <path d="M73.7995437,62.3593916 L70.9574144,62.3593916 C70.3213688,62.3593916 69.8057795,61.8438023 69.8057795,61.2082129 C69.8057795,60.5721673 70.3213688,60.0565779 70.9574144,60.0565779 L73.7995437,60.0565779 C74.4355894,60.0565779 74.9511787,60.5721673 74.9511787,61.2082129 C74.9511787,61.8438023 74.4355894,62.3593916 73.7995437,62.3593916" id="Fill-43" fill="#1D5880"></path>
                        <path d="M82.2912548,61.3181749 C82.2912548,61.9492015 81.7797719,62.4611407 81.1487452,62.4611407 C80.5177186,62.4611407 80.0057795,61.9492015 80.0057795,61.3181749 C80.0057795,60.686692 80.5177186,60.1752091 81.1487452,60.1752091 C81.7797719,60.1752091 82.2912548,60.686692 82.2912548,61.3181749" id="Fill-44" fill="#8DD0FF"></path>
                        <path d="M89.2174905,63.8719392 L5.41779468,63.8719392 C2.42737643,63.8719392 1.94521205e-14,61.4441065 1.94521205e-14,58.4536882 L1.94521205e-14,60.3508745 C1.94521205e-14,63.341749 2.42737643,65.7686692 5.41779468,65.7686692 L89.2174905,65.7686692 C92.208365,65.7686692 94.6357414,63.341749 94.6357414,60.3508745 L94.6357414,58.4536882 C94.6357414,61.4441065 92.208365,63.8719392 89.2174905,63.8719392" id="Fill-45" fill="#0F87C8"></path>
                        <path d="M31.3195437,55.6549049 L31.3195437,55.6549049 C31.3195437,55.1498099 31.7288213,54.7405323 32.2334601,54.7405323 L37.6476046,54.7405323 C38.1526996,54.7405323 38.5619772,55.1498099 38.5619772,55.6549049 C38.5619772,56.1595437 38.1526996,56.5688213 37.6476046,56.5688213 L32.2334601,56.5688213 C31.7288213,56.5688213 31.3195437,56.1595437 31.3195437,55.6549049" id="Fill-47" fill="#00AEEF"></path>
                        <path d="M22.3797719,55.6549049 L22.3797719,55.6549049 C22.3797719,55.1498099 22.7890494,54.7405323 23.2936882,54.7405323 L28.708289,54.7405323 C29.2129278,54.7405323 29.6222053,55.1498099 29.6222053,55.6549049 C29.6222053,56.1595437 29.2129278,56.5688213 28.708289,56.5688213 L23.2936882,56.5688213 C22.7890494,56.5688213 22.3797719,56.1595437 22.3797719,55.6549049" id="Fill-48" fill="#00AEEF"></path>
                        <path d="M49.2889734,55.6549049 L49.2889734,55.6549049 C49.2889734,55.1498099 49.698251,54.7405323 50.2028897,54.7405323 L55.6170342,54.7405323 C56.1221293,54.7405323 56.5314068,55.1498099 56.5314068,55.6549049 C56.5314068,56.1595437 56.1221293,56.5688213 55.6170342,56.5688213 L50.2028897,56.5688213 C49.698251,56.5688213 49.2889734,56.1595437 49.2889734,55.6549049" id="Fill-49" fill="#00AEEF"></path>
                        <path d="M40.3492015,55.6549049 L40.3492015,55.6549049 C40.3492015,55.1498099 40.7584791,54.7405323 41.2631179,54.7405323 L46.6777186,54.7405323 C47.1828137,54.7405323 47.5920913,55.1498099 47.5920913,55.6549049 C47.5920913,56.1595437 47.1828137,56.5688213 46.6777186,56.5688213 L41.2631179,56.5688213 C40.7584791,56.5688213 40.3492015,56.1595437 40.3492015,55.6549049" id="Fill-50" fill="#00AEEF"></path>
                        <path d="M67.258403,55.6549049 L67.258403,55.6549049 C67.258403,55.1498099 67.6676806,54.7405323 68.1727757,54.7405323 L73.5869202,54.7405323 C74.0920152,54.7405323 74.5012928,55.1498099 74.5012928,55.6549049 C74.5012928,56.1595437 74.0920152,56.5688213 73.5869202,56.5688213 L68.1727757,56.5688213 C67.6676806,56.5688213 67.258403,56.1595437 67.258403,55.6549049" id="Fill-51" fill="#00AEEF"></path>
                        <path d="M58.3186312,55.6549049 L58.3186312,55.6549049 C58.3186312,55.1498099 58.728365,54.7405323 59.2330038,54.7405323 L64.6471483,54.7405323 C65.1522433,54.7405323 65.5615209,55.1498099 65.5615209,55.6549049 C65.5615209,56.1595437 65.1522433,56.5688213 64.6471483,56.5688213 L59.2330038,56.5688213 C58.728365,56.5688213 58.3186312,56.1595437 58.3186312,55.6549049" id="Fill-52" fill="#00AEEF"></path>
                        <path d="M17.1572624,18.2988593 L17.1572624,18.2988593 C16.6526236,18.2988593 16.243346,17.8895817 16.243346,17.384943 L16.243346,11.9703422 C16.243346,11.4652471 16.6526236,11.0559696 17.1572624,11.0559696 C17.6623574,11.0559696 18.071635,11.4652471 18.071635,11.9703422 L18.071635,17.384943 C18.071635,17.8895817 17.6623574,18.2988593 17.1572624,18.2988593" id="Fill-53" fill="#00AEEF"></path>
                        <path d="M20.8822814,18.2988593 L20.8822814,18.2988593 C20.3776426,18.2988593 19.9679087,17.8895817 19.9679087,17.384943 L19.9679087,11.9703422 C19.9679087,11.4652471 20.3776426,11.0559696 20.8822814,11.0559696 C21.3873764,11.0559696 21.796654,11.4652471 21.796654,11.9703422 L21.796654,17.384943 C21.796654,17.8895817 21.3873764,18.2988593 20.8822814,18.2988593" id="Fill-54" fill="#00AEEF"></path>
                        <path d="M82.6229658,81.8888213 L12.0136882,81.8888213 C10.904943,81.8888213 10.1215209,80.803346 10.4710266,79.7511787 L11.6559696,76.184943 C12.4653992,73.7479848 14.7440304,72.1040304 17.3114829,72.1040304 L77.3251711,72.1040304 C79.8926236,72.1040304 82.1712548,73.7479848 82.9806844,76.184943 L84.1656274,79.7511787 C84.5151331,80.803346 83.7321673,81.8888213 82.6229658,81.8888213" id="Fill-55" fill="#00AEEF"></path>
                        <path d="M82.6220532,81.8860837 L12.015057,81.8860837 C10.9044867,81.8860837 10.1192395,80.8024335 10.4710266,79.7520913 L10.6284411,79.2857795 C10.9044867,79.7461597 11.4141445,80.0660076 12.015057,80.0660076 L82.6220532,80.0660076 C83.2288973,80.0660076 83.7330798,79.7461597 84.0091255,79.2803042 L84.1665399,79.7520913 C84.513308,80.8024335 83.7330798,81.8860837 82.6220532,81.8860837" id="Fill-56" fill="#0F87C8"></path>
                        <path d="M25.9346008,75.3513308 L22.1420532,75.3513308 C21.8427376,75.3513308 21.6004563,75.1090494 21.6004563,74.8092776 L21.6004563,70.6558175 C21.6004563,69.3093536 22.6918631,68.2174905 24.0387833,68.2174905 C25.3852471,68.2174905 26.476654,69.3093536 26.476654,70.6558175 L26.476654,74.8092776 C26.476654,75.1090494 26.2343726,75.3513308 25.9346008,75.3513308" id="Fill-57" fill="#0F87C8"></path>
                        <path d="M35.6536882,76.843346 L31.8611407,76.843346 C31.5618251,76.843346 31.3195437,76.6010646 31.3195437,76.301749 L31.3195437,72.1478327 C31.3195437,70.8013688 32.4109506,69.7104183 33.7574144,69.7104183 C35.1038783,69.7104183 36.1952852,70.8013688 36.1952852,72.1478327 L36.1952852,76.301749 C36.1952852,76.6010646 35.9530038,76.843346 35.6536882,76.843346" id="Fill-58" fill="#0F87C8"></path>
                        <path d="M47.0564259,75.3513308 L43.2638783,75.3513308 C42.9645627,75.3513308 42.7218251,75.1090494 42.7218251,74.8092776 L42.7218251,70.6558175 C42.7218251,69.3093536 43.8132319,68.2174905 45.1601521,68.2174905 C46.506616,68.2174905 47.5980228,69.3093536 47.5980228,70.6558175 L47.5980228,74.8092776 C47.5980228,75.1090494 47.3557414,75.3513308 47.0564259,75.3513308" id="Fill-59" fill="#0F87C8"></path>
                        <path d="M56.775057,76.843346 L52.9825095,76.843346 C52.6831939,76.843346 52.4409125,76.6010646 52.4409125,76.301749 L52.4409125,72.1478327 C52.4409125,70.8013688 53.5323194,69.7104183 54.8787833,69.7104183 C56.2252471,69.7104183 57.316654,70.8013688 57.316654,72.1478327 L57.316654,76.301749 C57.316654,76.6010646 57.0743726,76.843346 56.775057,76.843346" id="Fill-60" fill="#0F87C8"></path>
                        <path d="M65.4018251,78.4667681 L65.4018251,76.794981 C65.4018251,75.3746008 64.2497338,74.2225095 62.8293536,74.2225095 C61.4085171,74.2225095 60.2564259,75.3746008 60.2564259,76.794981 L60.2564259,78.4667681 L65.4018251,78.4667681" id="Fill-61" fill="#8DD0FF"></path>
                        <path d="M71.4068441,78.4667681 L71.4068441,76.794981 C71.4068441,75.3746008 70.2552091,74.2225095 68.8339163,74.2225095 C67.4135361,74.2225095 66.2619011,75.3746008 66.2619011,76.794981 L66.2619011,78.4667681 L71.4068441,78.4667681" id="Fill-62" fill="#8DD0FF"></path>
                        <path d="M77.3215209,78.4667681 L77.3215209,76.794981 C77.3215209,75.3746008 76.1694297,74.2225095 74.7485932,74.2225095 C73.3282129,74.2225095 72.1761217,75.3746008 72.1761217,76.794981 L72.1761217,78.4667681 L77.3215209,78.4667681" id="Fill-63" fill="#8DD0FF"></path>
                        <path d="M111.448517,42.7154373 C111.448517,45.3230418 111.448517,47.9306464 111.448517,50.5387072 C110.767757,50.1919392 109.961977,50.1919392 109.281217,50.5387072 C109.281217,47.9306464 109.281217,45.3230418 109.281217,42.7154373 C109.961977,42.3682129 110.767757,42.3682129 111.448517,42.7154373" id="Fill-64" fill="#0F87C8"></path>
                        <path d="M116.621293,29.3402281 C116.614449,29.4228137 116.604867,29.504943 116.598023,29.5875285 C116.561977,29.9790114 116.522281,30.3704943 116.486236,30.7624335 C116.449734,31.1575665 116.410494,31.5526996 116.374449,31.9478327 C115.956046,36.3130038 115.514829,38.8480608 115.070418,43.4596198 C115.057186,43.6047148 115.037567,43.7461597 115.008365,43.8844106 C114.988289,44.0030418 114.961825,44.121673 114.928973,44.2371103 C114.385551,46.3008365 112.532624,47.8380228 110.36943,47.8512548 L110.366236,47.8512548 C108.203042,47.8380228 106.350114,46.3008365 105.806692,44.2371103 C105.77384,44.121673 105.747376,44.006692 105.727757,43.8880608 C105.698099,43.7461597 105.678023,43.6047148 105.665247,43.4596198 C105.22038,38.8480608 104.77962,36.3130038 104.361673,31.9478327 C104.282738,31.1543726 104.209734,30.3677567 104.133992,29.5875285 C104.127605,29.504943 104.117567,29.4228137 104.111635,29.3402281 C108.058403,27.4079087 112.677262,27.4079087 116.621293,29.3402281" id="Fill-65" fill="#1D5880"></path>
                        <path d="M116.620837,29.3402281 C116.538251,30.2030418 116.455665,31.0722433 116.373992,31.9478327 C112.42038,31.0754373 108.315285,31.0754373 104.361217,31.9478327 C104.275437,31.0722433 104.192852,30.2030418 104.111179,29.3402281 C108.057947,27.4079087 112.676806,27.4079087 116.620837,29.3402281" id="Fill-66" fill="#0F87C8"></path>
                        <path d="M117.398783,29.5875285 L103.332319,29.5875285 C101.90327,29.5542205 100.820076,28.29673 101.060532,26.8946008 C101.452471,24.4946008 101.833916,21.9860076 102.20943,19.3884411 C102.360913,18.3581749 103.058555,17.295057 103.957414,16.8009125 C104.108897,16.7155894 104.266768,16.6462357 104.431483,16.5969582 C108.30616,15.4676806 112.424487,15.4676806 116.29962,16.5969582 C116.463878,16.6462357 116.622205,16.7155894 116.773688,16.8009125 C117.672091,17.295057 118.37019,18.3581749 118.521673,19.3884411 C118.89673,21.9860076 119.278631,24.4946008 119.670114,26.8946008 C119.911027,28.29673 118.827833,29.5542205 117.398783,29.5875285" id="Fill-67" fill="#1D5880"></path>
                        <path d="M116.773688,16.8009125 C116.411407,17.2225095 115.874829,17.4889734 115.275285,17.4889734 L105.455361,17.4889734 C104.856274,17.4889734 104.319696,17.2225095 103.957414,16.8009125 C104.108897,16.7155894 104.266768,16.6462357 104.431483,16.5969582 C108.30616,15.4676806 112.424487,15.4676806 116.29962,16.5969582 C116.463878,16.6462357 116.622205,16.7155894 116.773688,16.8009125" id="Fill-68" fill="#0F87C8"></path>
                        <path d="M106.003346,21.4261597 C106.645779,21.0255513 107.359848,20.7426616 108.097186,20.5528517 C108.834981,20.3584791 109.600608,20.2717871 110.365323,20.2653992 C111.130038,20.2708745 111.895665,20.3580228 112.63346,20.5519392 C113.371711,20.7412928 114.084867,21.0246388 114.7273,21.4261597 C113.984943,21.2801521 113.262205,21.1460076 112.537186,21.0565779 C111.81308,20.971711 111.089886,20.9178707 110.365323,20.923346 C109.641217,20.9169582 108.918023,20.9707985 108.193004,21.0556654 C107.467985,21.1450951 106.745247,21.2796958 106.003346,21.4261597" id="Fill-69" fill="#0F87C8"></path>
                        <path d="M106.949658,23.2097338 C107.441977,22.8679848 108,22.6307224 108.579011,22.4710266 C109.158023,22.3113308 109.761673,22.228289 110.365323,22.2287452 C110.968973,22.2269202 111.572624,22.3108745 112.152091,22.4701141 C112.730646,22.6293536 113.288669,22.8675285 113.780989,23.2097338 C113.188745,23.1230418 112.622053,23.0340684 112.055817,22.9747529 C111.490038,22.9154373 110.927452,22.8889734 110.365323,22.8871483 C109.803194,22.8880608 109.240608,22.914981 108.674829,22.9738403 C108.108137,23.0326996 107.541445,23.1221293 106.949658,23.2097338" id="Fill-70" fill="#0F87C8"></path>
                        <path d="M107.800608,24.9928517 C108.157871,24.7044867 108.575817,24.5078327 109.012015,24.3755133 C109.448669,24.2431939 109.906768,24.1738403 110.365323,24.1742966 C110.824335,24.1724715 111.281977,24.2427376 111.719087,24.3746008 C112.155741,24.5064639 112.573688,24.7040304 112.930494,24.9928517 L111.62327,24.8792395 C111.199848,24.8473004 110.782357,24.8345247 110.365323,24.8326996 C109.948289,24.8331559 109.531255,24.8468441 109.107833,24.878327 L107.800608,24.9928517" id="Fill-71" fill="#0F87C8"></path>
                        <path d="M115.008365,43.8844106 C114.988289,44.0030418 114.961825,44.121673 114.928973,44.2371103 C113.420989,44.5295817 111.893384,44.6778707 110.366236,44.6778707 C108.838631,44.6778707 107.314221,44.5332319 105.806692,44.2371103 C105.77384,44.121673 105.747376,44.006692 105.727757,43.8880608 C108.789354,44.5035741 111.946312,44.5035741 115.008365,43.8844106" id="Fill-72" fill="#0F87C8"></path>
                    </g>
                </g>
            </g>
        </g>
    </g>
</svg>