<?xml version="1.0" encoding="UTF-8"?>
<svg width="22px" height="15px" viewBox="0 0 22 15" version="1.1" xmlns="http://www.w3.org/2000/svg" xmlns:xlink="http://www.w3.org/1999/xlink">
    <title>00FD5155-591C-483B-9EDD-90232F7D6134</title>
    <defs>
        <path d="M20.4435484,2.90322581 C20.9854839,2.90322581 21.4009677,3.34580645 21.3949462,3.87690323 L21.3870968,3.99193548 L20.1774194,14.1532258 C20.1104218,14.5998759 19.7548196,14.9434529 19.3199304,14.9936681 L19.2096774,15 L1.81451613,15 C1.27258065,15 0.836021505,14.5574194 0.839232975,14.0263226 L0.846774194,13.9112903 L2.05645161,3.75 C2.12344913,3.30334988 2.47905135,2.95977286 2.91394056,2.90955775 L3.02419355,2.90322581 L20.4435484,2.90322581 Z M4.5483871,-3.51718654e-13 C4.84475806,-3.51718654e-13 5.12260585,0.129662298 5.30089151,0.356571321 L5.37096774,0.459677419 L5.68548387,0.967741935 L18.3870968,0.967741935 C18.8813364,0.967741935 19.292133,1.34323568 19.3482966,1.82303325 L19.3548387,1.93548387 L2.05645161,1.93548387 C1.60980149,1.93548387 1.22499523,2.24470319 1.1303794,2.69188189 L1.11290323,2.80645161 L6.57252031e-14,12.0241935 L6.57252031e-14,0.967741935 C6.57252031e-14,0.473502304 0.375493746,0.0627057275 0.85529131,0.00654213298 L0.967741935,-3.51718654e-13 L4.5483871,-3.51718654e-13 Z M9,6.75 L9,11.25 L13.5,9 L9,6.75 Z" id="path-1"></path>
    </defs>
    <g id="Welcome-Flow" stroke="none" stroke-width="1" fill="none" fill-rule="evenodd">
        <g id="02.-Mobile---Dashboard" transform="translate(-41.000000, -593.000000)">
            <g id="TeleHealth" transform="translate(16.000000, 451.000000)">
                <g id="Vídeo-Laudo" transform="translate(0.000000, 120.000000)">
                    <g id="icon" transform="translate(24.000000, 18.000000)">
                        <g id="UI/Icons/camera" transform="translate(1.000000, 4.000000)">
                            <mask id="mask-2" fill="white">
                                <use xlink:href="#path-1"></use>
                            </mask>
                            <use id="folder" fill="#0F87C8" fill-rule="nonzero" xlink:href="#path-1"></use>
                        </g>
                    </g>
                </g>
            </g>
        </g>
    </g>
</svg>